<?xml version="1.0" encoding="UTF-8" standalone="no"?>
<svg
   xmlns:dc="http://purl.org/dc/elements/1.1/"
   xmlns:cc="http://creativecommons.org/ns#"
   xmlns:rdf="http://www.w3.org/1999/02/22-rdf-syntax-ns#"
   xmlns:svg="http://www.w3.org/2000/svg"
   xmlns="http://www.w3.org/2000/svg"
   width="24px"
   height="24px"
   viewBox="0 0 24 24"
   version="1.1"
   id="svg50">
  <metadata
     id="metadata54">
    <rdf:RDF>
      <cc:Work
         rdf:about="">
        <dc:format>image/svg+xml</dc:format>
        <dc:type
           rdf:resource="http://purl.org/dc/dcmitype/StillImage" />
        <dc:title>tb_measure</dc:title>
      </cc:Work>
    </rdf:RDF>
  </metadata>
  <!-- Generator: Sketch 3.3.1 (12002) - http://www.bohemiancoding.com/sketch -->
  <title
     id="title2">tb_measure</title>
  <desc
     id="desc4">Created with Sketch.</desc>
  <defs
     id="defs25">
    <linearGradient
       gradientUnits="userSpaceOnUse"
       gradientTransform="matrix(0.80195444,0,0,1.2469536,-20,0)"
       x1="7.6142639"
       y1="1.4318587"
       x2="7.6142639"
       y2="8.2512125"
       id="linearGradient-1">
      <stop
         stop-color="#B4B3B3"
         offset="0%"
         id="stop6" />
      <stop
         stop-color="#9B9999"
         offset="44.6490095%"
         id="stop8" />
      <stop
         stop-color="#D0CECE"
         offset="100%"
         id="stop10" />
    </linearGradient>
    <linearGradient
       gradientUnits="userSpaceOnUse"
       gradientTransform="matrix(0.78967123,0,0,1.2663498,-20,0)"
       x1="13.79273"
       y1="1.2212405"
       x2="13.79273"
       y2="9.870813"
       id="linearGradient-2">
      <stop
         stop-color="#E1E1E1"
         offset="0%"
         id="stop13" />
      <stop
         stop-color="#B6B6B6"
         offset="100%"
         id="stop15" />
    </linearGradient>
    <linearGradient
       gradientUnits="userSpaceOnUse"
       gradientTransform="matrix(1.2164229,0,0,0.82208253,-20,0)"
       x1="2.7885084"
       y1="14.938069"
       x2="3.8431126"
       y2="17.18686"
       id="linearGradient-3">
      <stop
         stop-color="#FFF700"
         offset="0%"
         id="stop18" />
      <stop
         stop-color="#DAD304"
         offset="52.6933862%"
         id="stop20" />
      <stop
         stop-color="#FFF700"
         offset="100%"
         id="stop22" />
    </linearGradient>
  </defs>
  <g
     transform="translate(0,1.999547)"
     aria-label="1:100"
     style="font-style:normal;font-variant:normal;font-weight:normal;font-stretch:normal;font-size:40px;line-height:5.00000007%;font-family:Arial;-inkscape-font-specification:Arial;letter-spacing:0px;word-spacing:0px;fill:#000000;fill-opacity:1;stroke:none;stroke-width:1px;stroke-linecap:butt;stroke-linejoin:miter;stroke-opacity:1"
     id="text835">
    <path
       d="M 12.422103,20.50688 H 11.781803 V 18.093794 Q 11.430892,18.421919 10.954655,18.579145 V 17.998091 Q 11.205306,17.91606 11.499251,17.688195 11.793197,17.458052 11.902572,17.152713 H 12.422103 Z"
       style="font-style:normal;font-variant:normal;font-weight:bold;font-stretch:normal;font-size:4.66666651px;line-height:4.50400002%;font-family:Arial;-inkscape-font-specification:'Arial Bold';text-align:center;text-anchor:middle"
       id="path897" />
    <path
       d="M 13.641178,18.727257 V 18.086958 H 14.281478 V 18.727257 Z M 13.641178,20.50688 V 19.86658 H 14.281478 V 20.50688 Z"
       style="font-style:normal;font-variant:normal;font-weight:bold;font-stretch:normal;font-size:4.66666651px;line-height:4.50400002%;font-family:Arial;-inkscape-font-specification:'Arial Bold';text-align:center;text-anchor:middle"
       id="path899" />
    <path
       d="M 16.578353,20.50688 H 15.938053 V 18.093794 Q 15.587142,18.421919 15.110905,18.579145 V 17.998091 Q 15.361556,17.91606 15.655501,17.688195 15.949447,17.458052 16.058822,17.152713 H 16.578353 Z"
       style="font-style:normal;font-variant:normal;font-weight:bold;font-stretch:normal;font-size:4.66666651px;line-height:4.50400002%;font-family:Arial;-inkscape-font-specification:'Arial Bold';text-align:center;text-anchor:middle"
       id="path901" />
    <path
       style="font-style:normal;font-variant:normal;font-weight:bold;font-stretch:normal;font-size:4.66666651px;line-height:4.50400002%;font-family:Arial;-inkscape-font-specification:'Arial Bold';text-align:center;letter-spacing:0px;word-spacing:0px;text-anchor:middle;fill:#000000;fill-opacity:1;stroke:none;stroke-width:1px;stroke-linecap:butt;stroke-linejoin:miter;stroke-opacity:1"
       d="M 18.619141,17.152344 C 18.295573,17.152344 18.044054,17.266276 17.863281,17.494141 17.644531,17.770617 17.535156,18.22461 17.535156,18.853516 17.535156,18.905008 17.545591,18.935401 17.546875,18.984375 H 18.214844 C 18.213899,18.929612 18.205078,18.919988 18.205078,18.859375 18.205078,18.467448 18.22743,18.189019 18.271484,18.023438 18.304904,17.895834 18.351345,17.808377 18.412109,17.759766 18.472873,17.709636 18.541667,17.683594 18.619141,17.683594 18.696615,17.683594 18.764973,17.709636 18.824219,17.759766 18.884982,17.808377 18.935113,17.905382 18.974609,18.052734 19.014106,18.198568 19.035156,18.467448 19.035156,18.859375 19.035156,18.918111 19.02638,18.930757 19.025391,18.984375 H 19.693359 C 19.694646,18.938005 19.705078,18.907836 19.705078,18.859375 19.705078,18.225912 19.596138,17.773438 19.378906,17.5 19.196615,17.269097 18.942709,17.152344 18.619141,17.152344 Z"
       id="path903" />
    <path
       style="font-style:normal;font-variant:normal;font-weight:bold;font-stretch:normal;font-size:4.66666651px;line-height:4.50400002%;font-family:Arial;-inkscape-font-specification:'Arial Bold';text-align:center;letter-spacing:0px;word-spacing:0px;text-anchor:middle;fill:#000000;fill-opacity:1;stroke:none;stroke-width:1px;stroke-linecap:butt;stroke-linejoin:miter;stroke-opacity:1"
       d="M 21.216797,17.152344 C 20.893229,17.152344 20.64171,17.266276 20.460938,17.494141 20.242188,17.770617 20.132812,18.22461 20.132812,18.853516 20.132812,18.905008 20.143247,18.935401 20.144531,18.984375 H 20.8125 C 20.811555,18.929612 20.802734,18.919988 20.802734,18.859375 20.802734,18.467448 20.825087,18.189019 20.869141,18.023438 20.902561,17.895834 20.949002,17.808377 21.009766,17.759766 21.07053,17.709636 21.139323,17.683594 21.216797,17.683594 21.294271,17.683594 21.36263,17.709636 21.421875,17.759766 21.482639,17.808377 21.53277,17.905382 21.572266,18.052734 21.611762,18.198568 21.632812,18.467448 21.632812,18.859375 21.632812,18.918111 21.624036,18.930757 21.623047,18.984375 H 22.291016 C 22.292302,18.938005 22.302734,18.907836 22.302734,18.859375 22.302734,18.225912 22.193793,17.773438 21.976562,17.5 21.79427,17.269097 21.540364,17.152344 21.216797,17.152344 Z"
       id="path905" />
    <path
       style="font-style:normal;font-variant:normal;font-weight:bold;font-stretch:normal;font-size:4.66666651px;line-height:4.50400002%;font-family:Arial;-inkscape-font-specification:'Arial Bold';text-align:center;letter-spacing:0px;word-spacing:0px;text-anchor:middle;fill:#000000;fill-opacity:1;stroke:none;stroke-width:1px;stroke-linecap:butt;stroke-linejoin:miter;stroke-opacity:1"
       d="M 17.546875,18.984375 C 17.561576,19.545101 17.650967,19.958935 17.833984,20.189453 18.032986,20.438585 18.294054,20.564453 18.619141,20.564453 18.942709,20.564453 19.19618,20.450521 19.376953,20.222656 19.578928,19.967383 19.677871,19.54269 19.693359,18.984375 H 19.025391 C 19.019778,19.288535 19.006202,19.553885 18.96875,19.693359 18.93533,19.820964 18.888889,19.910808 18.828125,19.960938 18.767361,20.009548 18.696615,20.033203 18.619141,20.033203 18.541667,20.033203 18.472873,20.009548 18.412109,19.960938 18.352864,19.912326 18.303168,19.813802 18.263672,19.667969 18.230283,19.543405 18.220007,19.283715 18.214844,18.984375 Z"
       id="path903-1" />
    <path
       style="font-style:normal;font-variant:normal;font-weight:bold;font-stretch:normal;font-size:4.66666651px;line-height:4.50400002%;font-family:Arial;-inkscape-font-specification:'Arial Bold';text-align:center;letter-spacing:0px;word-spacing:0px;text-anchor:middle;fill:#000000;fill-opacity:1;stroke:none;stroke-width:1px;stroke-linecap:butt;stroke-linejoin:miter;stroke-opacity:1"
       d="M 20.144531,18.984375 C 20.159232,19.545101 20.248623,19.958935 20.431641,20.189453 20.630642,20.438585 20.89171,20.564453 21.216797,20.564453 21.540364,20.564453 21.793837,20.450521 21.974609,20.222656 22.176584,19.967383 22.275527,19.54269 22.291016,18.984375 H 21.623047 C 21.617434,19.288535 21.603858,19.553885 21.566406,19.693359 21.532986,19.820964 21.486545,19.910808 21.425781,19.960938 21.365018,20.009548 21.294271,20.033203 21.216797,20.033203 21.139323,20.033203 21.07053,20.009548 21.009766,19.960938 20.950521,19.912326 20.900825,19.813802 20.861328,19.667969 20.82794,19.543405 20.817664,19.283715 20.8125,18.984375 Z"
       id="path905-4" />
  </g>
  <rect
     y="5.4921217"
     x="3.5"
     height="11.007878"
     width="17"
     id="rect843"
     style="opacity:1;fill:#79c1b6;fill-opacity:1;fill-rule:evenodd;stroke:#0a1c08;stroke-width:0.99999994;stroke-linecap:square;stroke-linejoin:miter;stroke-miterlimit:4;stroke-dasharray:none;stroke-dashoffset:0;stroke-opacity:1" />
  <rect
     y="7.6090217"
     x="6.7692308"
     height="6.7740788"
     width="10.461538"
     id="rect843-0"
     style="opacity:1;fill:#f0f0f0;fill-opacity:1;fill-rule:evenodd;stroke:#0a1c08;stroke-width:0.49999997;stroke-linecap:round;stroke-linejoin:round;stroke-miterlimit:4;stroke-dasharray:none;stroke-dashoffset:0;stroke-opacity:1" />
  <path
     id="path860"
     d="M 3.5,16.5 6.7692308,14.3831 V 7.6090215 L 3.5,5.4921218 Z"
     style="fill:#d4d4d4;fill-opacity:1;fill-rule:evenodd;stroke:#000000;stroke-width:0.49999997;stroke-linecap:butt;stroke-linejoin:bevel;stroke-miterlimit:4;stroke-dasharray:none;stroke-opacity:1" />
  <path
     id="path862"
     d="M 6.7692308,7.6090215 H 17.23077 L 20.5,5.4921218 H 3.5 Z"
     style="fill:#a6a6a6;fill-opacity:1;fill-rule:evenodd;stroke:#000000;stroke-width:0.49999997;stroke-linecap:butt;stroke-linejoin:bevel;stroke-miterlimit:4;stroke-dasharray:none;stroke-opacity:1" />
  <path
     id="path860-5"
     d="M 20.401863,5.4485895 17.132632,7.5654891 V 14.339568 L 20.401863,16.456467 Z"
     style="fill:#e8e8e8;fill-opacity:1;fill-rule:evenodd;stroke:#000000;stroke-width:0.49999997;stroke-linecap:butt;stroke-linejoin:bevel;stroke-miterlimit:4;stroke-dasharray:none;stroke-opacity:1" />
  <path
     id="path862-8"
     d="M 17.132632,14.339568 H 6.6710925 L 3.4018625,16.456467 H 20.401863 Z"
     style="fill:#ffffff;fill-opacity:1;fill-rule:evenodd;stroke:#000000;stroke-width:0.49999997;stroke-linecap:butt;stroke-linejoin:bevel;stroke-miterlimit:4;stroke-dasharray:none;stroke-opacity:1" />
</svg>
